<?xml version="1.0" encoding="iso-8859-1"?>
<!-- Generator: Adobe Illustrator 18.0.0, SVG Export Plug-In . SVG Version: 6.00 Build 0)  -->
<!DOCTYPE svg PUBLIC "-//W3C//DTD SVG 1.1//EN" "http://www.w3.org/Graphics/SVG/1.1/DTD/svg11.dtd">
<svg version="1.1" id="Capa_1" xmlns="http://www.w3.org/2000/svg" xmlns:xlink="http://www.w3.org/1999/xlink" x="0px" y="0px"
	 viewBox="0 0 273.007 273.007" style="enable-background:new 0 0 273.007 273.007;" xml:space="preserve">
<path d="M249.722,118.153h-12.117c-6.824-38-35.601-69.589-72.601-80.273V20.961c0-7.818-6.155-13.808-13.973-13.808h-6.712
	c-0.182-4-3.457-7.153-7.482-7.153s-7.3,3.153-7.482,7.153h-6.998c-7.817,0-14.353,5.99-14.353,13.808v17.054
	c-37,10.808-64.971,42.138-71.767,80.138H24.118c-8.56,0-16.115,7.07-16.115,15.63v4.74c0,8.561,7.554,15.63,16.115,15.63h12.118
	c6.796,38,34.767,69.331,71.767,80.138v17.353c0,7.817,6.535,14.509,14.353,14.509h7.013c0.328,3,3.543,6.854,7.467,6.854
	s7.139-3.854,7.467-6.854h6.727c7.818,0,13.973-6.691,13.973-14.509v-17.218c37-10.685,65.777-42.273,72.601-80.273h12.117
	c8.56,0,15.282-7.07,15.282-15.63v-4.74C265.004,125.223,258.282,118.153,249.722,118.153z M136.694,31.97
	c6.755,0,12.232,5.476,12.232,12.232c0,6.755-5.476,12.231-12.232,12.231c-6.755,0-12.232-5.476-12.232-12.231
	C124.462,37.447,129.938,31.97,136.694,31.97z M108.004,205.162v8.057c-26-9.644-45.278-32.066-51.355-59.066h8.573
	c8.56,0,14.782-7.07,14.782-15.63v-4.74c0-8.561-6.221-15.63-14.782-15.63h-8.573c6.077-27,25.355-49.422,51.355-59.066v8.356
	c0,7.818,6.535,13.71,14.353,13.71h5.323c-0.216,1-0.675,2.115-0.675,3v23.55c-10,4.034-18.161,14.297-18.161,26.327
	c0,12.03,8.161,22.292,18.161,26.327v29.796c0,0.288,0.353,1,0.376,1h-5.024C114.539,191.153,108.004,197.344,108.004,205.162z
	 M136.694,240.635c-6.755,0-12.232-5.476-12.232-12.231s5.476-12.232,12.232-12.232c6.755,0,12.232,5.476,12.232,12.232
	S143.449,240.635,136.694,240.635z M208.618,154.153h8.574c-6.113,27-26.189,49.695-52.189,59.245v-8.237
	c0-7.817-6.155-14.009-13.973-14.009h-3.737c0.024,0-0.29-0.712-0.29-1v-29.796c11-4.034,18.161-14.297,18.161-26.327
	c0-12.03-7.161-22.292-18.161-26.327v-23.55c0-0.885,0.207-2-0.009-3h4.036c7.818,0,13.973-5.892,13.973-13.71v-8.535
	c26,9.551,46.076,32.245,52.189,59.245h-8.574c-8.56,0-15.615,7.07-15.615,15.63v4.74
	C193.004,147.083,200.058,154.153,208.618,154.153z"/>
<g>
</g>
<g>
</g>
<g>
</g>
<g>
</g>
<g>
</g>
<g>
</g>
<g>
</g>
<g>
</g>
<g>
</g>
<g>
</g>
<g>
</g>
<g>
</g>
<g>
</g>
<g>
</g>
<g>
</g>
</svg>
